<?xml version="1.0" encoding="UTF-8"?>
<svg id="Layer_2" data-name="Layer 2" xmlns="http://www.w3.org/2000/svg" viewBox="0 0 987.9 814.99">
  <defs>
    <style>
      .cls-1 {
        fill: #111;
        stroke-width: 0px;
      }
    </style>
  </defs>
  <g id="Layer_1-2" data-name="Layer 1">
    <g>
      <path class="cls-1" d="m574.58,529.16c10.89,0,21.78-.1,32.67.02,15.39.18,27.16,9.8,28.36,25.64,1.92,25.3,1.93,50.77,0,76.07-1.22,15.94-12.63,25.65-28.15,25.84-21.78.26-43.56.29-65.33,0-17.25-.23-28.73-12.23-28.93-30.14-.25-22.33-.24-44.68,0-67.01.19-18.28,12.04-30.25,29.6-30.4,10.59-.09,21.19-.02,31.78-.02Z"/>
      <path class="cls-1" d="m750.27,529.16c10.89,0,21.78-.13,32.67.03,16.45.25,28.24,12.47,28.39,29.68.19,22.64.18,45.29,0,67.93-.13,17.35-11.43,29.58-28.17,29.89-22.07.4-44.15.35-66.21.02-16.59-.25-28.28-12.4-28.54-29.69-.34-22.64-.35-45.29,0-67.93.27-17.83,12.19-29.73,29.2-29.91,10.89-.12,21.78-.02,32.67-.02Z"/>
      <path class="cls-1" d="m399.64,529.16c10.89,0,21.78-.12,32.67.03,15.56.22,27.54,10.68,28.1,26.84.87,24.74.85,49.55-.04,74.29-.55,15.42-11.89,26.02-26.7,26.33-22.65.46-45.32.46-67.98.02-15.93-.3-27.2-11.99-27.52-28.57-.45-23.24-.46-46.51-.06-69.76.3-17.43,12.11-28.95,28.87-29.15,10.89-.13,21.78-.02,32.67-.02Z"/>
      <path class="cls-1" d="m224,529.17c11.18,0,22.36-.16,33.54.04,15.62.28,27.59,12.04,27.88,28.23.41,23.55.38,47.11.04,70.66-.23,16.06-11.25,28.1-26.65,28.5-22.93.59-45.9.56-68.83.02-15.95-.38-26.74-12.52-26.84-29.04-.14-23.25-.17-46.5.01-69.74.13-16.28,11.64-28.27,27.32-28.61,11.17-.24,22.36-.05,33.54-.05Z"/>
      <path class="cls-1" d="m987.9,814.99H0V0h987.9v814.99ZM100.41,359.53h787.08c1.29,0,2.33-1.04,2.33-2.33V105.68c0-1.29-1.04-2.33-2.33-2.33H100.41c-1.29,0-2.33,1.04-2.33,2.33v251.52c0,1.29,1.04,2.33,2.33,2.33Zm-.47,370.05h787.55c1.29,0,2.33-1.04,2.33-2.33v-268.39c0-1.29-1.04-2.33-2.33-2.33H100.41c-1.29,0-2.33,1.04-2.33,2.33v268.85c0,1.03.84,1.87,1.87,1.87Z"/>
      <path class="cls-1" d="m592.16,332.54c-19.75.07-35.49-13.03-39.94-33.41-.63-2.89-.58-5.66-3.85-7.24-16.25-7.83-26.8-21.81-36.09-37.01-6.28-10.27-12.28-20.73-18.44-31.08-3.92-6.58-8.22-12.87-13.45-18.41-16.86-17.84-38.39-17.51-54.84.92-9.41,10.54-15.95,23.13-23.05,35.32-8.45,14.48-16.82,29.03-29.37,40.3-25.02,22.48-60.14,21.45-83.96-2.29-11.93-11.89-20.26-26.42-28.65-40.93-5.45-9.42-10.77-18.91-17.33-27.57-3.92-5.17-8.34-9.73-13.69-13.34-5.51-3.72-9.44-5.02-14.71,1.96-11.82,15.68-31.89,19.54-48.79,11.01-16.67-8.41-25.9-28.02-22.06-46.88,3.73-18.37,18.99-32.33,36.56-33.46,19.91-1.28,35.92,9.72,42.01,29.29,1.43,4.59,3.36,7.22,8.19,8.67,13.36,4.01,23.45,13.21,32.11,24.2,10.54,13.39,18.33,28.66,27.04,43.3,5.57,9.36,11.47,18.5,19.66,25.7,14.18,12.46,33.01,12.05,46.75-.97,8.55-8.11,14.75-18.08,20.68-28.27,8.42-14.47,16.33-29.29,26.99-42.24,27.6-33.55,70.36-33.9,98.42-.68,11.2,13.26,19.21,28.74,27.97,43.7,5.81,9.9,11.87,19.58,20.23,27.5,4.48,4.24,7.41,5.92,12.77-.13,12.7-14.35,33.46-16.53,49.57-6.67,15.71,9.61,23.28,29.2,18.44,47.68-4.92,18.76-20.33,30.97-39.17,31.03ZM183.97,187.68c7.38.01,14.19-6.88,14.44-14.6.26-8.08-6.62-15.52-14.39-15.56-7.33-.03-14.23,6.97-14.44,14.65-.23,8.18,6.56,15.49,14.4,15.5Zm408.35,117.75c7.74-.24,14.7-8.01,14.21-15.86-.48-7.72-7.51-14.5-14.84-14.34-7.77.18-14.36,7.68-13.98,15.91.37,7.88,7.16,14.52,14.61,14.29Z"/>
      <circle class="cls-1" cx="765.5" cy="231.44" r="92.38"/>
    </g>
  </g>
</svg>